<?xml version="1.0" encoding="utf-8"?>
<!-- Generator: Adobe Illustrator 19.2.1, SVG Export Plug-In . SVG Version: 6.00 Build 0)  -->
<svg version="1.1" id="Layer_1" xmlns="http://www.w3.org/2000/svg" xmlns:xlink="http://www.w3.org/1999/xlink" x="0px" y="0px"
	 viewBox="0 0 50 50" style="enable-background:new 0 0 50 50;" xml:space="preserve">
<style type="text/css">
	.st0{fill:#FFFFFF;}
	.st1{fill:#343434;}
	.st2{fill:#3A3A3A;}
	.st3{fill:#404040;}
	.st4{fill:#545454;}
	.st5{fill:#656565;}
	.st6{fill:#7C7C7C;}
	.st7{fill:#909090;}
	.st8{fill:#A5A5A5;}
	.st9{fill:#B7B7B7;}
	.st10{fill:#D0D0D0;}
	.st11{fill:#E2E2E2;}
</style>
<g>
	<path class="st0" d="M25,9c-0.8,0-1.5,0.7-1.5,1.5v5.8c0,0.8,0.6,1.5,1.5,1.5c0.8,0,1.5-0.7,1.5-1.5v-5.8C26.5,9.7,25.8,9,25,9z"/>
	<path class="st1" d="M33.1,11.2c-0.7-0.4-1.6-0.2-2,0.5l-2.9,5c-0.4,0.7-0.2,1.6,0.5,2s1.6,0.2,2-0.5l2.9-5
		C34,12.5,33.8,11.6,33.1,11.2z"/>
	<path class="st2" d="M38.9,17.1c-0.4-0.7-1.3-0.9-2-0.5l-5,2.9c-0.7,0.4-0.9,1.3-0.5,2s1.3,0.9,2,0.5l5-2.9
		C39.1,18.6,39.3,17.8,38.9,17.1z"/>
	<path class="st3" d="M41.1,25.1c0-0.8-0.7-1.5-1.5-1.5h-5.8c-0.8,0-1.5,0.6-1.5,1.5c0,0.8,0.7,1.5,1.5,1.5h5.8
		C40.4,26.6,41.1,25.9,41.1,25.1z"/>
	<path class="st4" d="M38.9,33.2c0.4-0.7,0.2-1.6-0.5-2l-5-2.9c-0.7-0.4-1.6-0.2-2,0.5s-0.2,1.6,0.5,2l5,2.9
		C37.7,34.1,38.5,33.9,38.9,33.2z"/>
	<path class="st5" d="M33.1,39c0.7-0.4,0.9-1.3,0.5-2l-2.9-5c-0.4-0.7-1.3-0.9-2-0.5s-0.9,1.3-0.5,2l2.9,5
		C31.5,39.2,32.4,39.5,33.1,39z"/>
	<path class="st6" d="M25,41.2c0.8,0,1.5-0.7,1.5-1.5v-5.8c0-0.8-0.6-1.5-1.5-1.5c-0.8,0-1.5,0.7-1.5,1.5v5.8
		C23.5,40.5,24.2,41.2,25,41.2z"/>
	<path class="st7" d="M16.9,39c0.7,0.4,1.6,0.2,2-0.5l2.9-5c0.4-0.7,0.2-1.6-0.5-2s-1.6-0.2-2,0.5l-2.9,5C16,37.8,16.2,38.6,16.9,39
		z"/>
	<path class="st8" d="M11.1,33.2c0.4,0.7,1.3,0.9,2,0.5l5-2.9c0.7-0.4,0.9-1.3,0.5-2s-1.3-0.9-2-0.5l-5,2.9
		C10.9,31.6,10.7,32.5,11.1,33.2z"/>
	<path class="st9" d="M8.9,25.1c0,0.8,0.7,1.5,1.5,1.5h5.8c0.8,0,1.5-0.6,1.5-1.5c0-0.8-0.7-1.5-1.5-1.5h-5.8
		C9.6,23.6,8.9,24.3,8.9,25.1z"/>
	<path class="st10" d="M11.1,17.1c-0.4,0.7-0.2,1.6,0.5,2l5,2.9c0.7,0.4,1.6,0.2,2-0.5s0.2-1.6-0.5-2l-5-2.9
		C12.3,16.1,11.5,16.4,11.1,17.1z"/>
	<path class="st11" d="M16.9,11.2c-0.7,0.4-0.9,1.3-0.5,2l2.9,5c0.4,0.7,1.3,0.9,2,0.5s0.9-1.3,0.5-2l-2.9-5
		C18.5,11,17.6,10.8,16.9,11.2z"/>
</g>
</svg>
